<svg width="159" height="37" viewBox="0 0 159 37" fill="none" xmlns="http://www.w3.org/2000/svg">
<g>
<path d="M0 36.5V0.5H13.6526C18.9287 0.5 22.9322 2.4334 25.6639 6.30019C28.3956 10.167 29.7615 15.1614 29.7615 21.2834C29.7615 27.4055 28.3956 32.3999 25.6639 36.2667C22.9322 40.1335 18.9287 42.0669 13.6526 42.0669H0V36.5ZM13.6526 36.5C17.3033 36.5 20.1714 35.1969 22.257 32.5907C24.3427 29.9845 25.3855 26.242 25.3855 21.3634C25.3855 16.4848 24.3427 12.7423 22.257 10.1361C20.1714 7.52987 17.3033 6.22674 13.6526 6.22674H4.37698V36.5H13.6526Z" fill="#303030"/>
<path d="M44.9658 36.5C39.5273 36.5 35.1652 34.5957 31.8796 30.787C28.594 26.9783 26.9512 22.0703 26.9512 16.063C26.9512 10.0557 28.594 5.14774 31.8796 1.33903C35.1652 -2.46967 39.5273 -4.37399 44.9658 -4.37399C50.4043 -4.37399 54.7664 -2.46967 58.052 -1.33903C61.3376 0.791607 62.9804 5.14774 62.9804 11.7204V36.5H58.6043V12.0295C58.6043 7.1509 56.9615 3.40837 53.6759 0.801106C50.3903 -1.80616 47.5222 -3.10929 44.9658 -3.10929C42.4094 -3.10929 39.5413 -1.80616 36.2557 0.801106C32.9701 3.40837 31.3273 7.1509 31.3273 12.0295C31.3273 16.9081 32.9701 20.6506 36.2557 23.2578C39.5413 25.8651 42.4094 27.1682 44.9658 27.1682C47.5222 27.1682 50.3903 25.8651 53.6759 23.2578C56.9615 20.6506 58.6043 16.9081 58.6043 12.0295V11.7204H62.9804V36.5H44.9658Z" fill="#303030"/>
<path d="M77.1836 36.5C71.7451 36.5 67.383 34.5957 64.0974 30.787C60.8118 26.9783 59.169 22.0703 59.169 16.063C59.169 10.0557 60.8118 5.14774 64.0974 1.33903C67.383 -2.46967 71.7451 -4.37399 77.1836 -4.37399C82.6221 -4.37399 86.9842 -2.46967 90.2698 -1.33903C93.5554 0.791607 95.1982 5.14774 95.1982 11.7204V36.5H90.8221V12.0295C90.8221 7.1509 89.1793 3.40837 85.8937 0.801106C82.6081 -1.80616 79.74 -3.10929 77.1836 -3.10929C74.6272 -3.10929 71.7591 -1.80616 68.4735 0.801106C65.1879 3.40837 63.5451 7.1509 63.5451 12.0295C63.5451 16.9081 65.1879 20.6506 68.4735 23.2578C71.7591 25.8651 74.6272 27.1682 77.1836 27.1682C79.74 27.1682 82.6081 25.8651 85.8937 23.2578C89.1793 20.6506 90.8221 16.9081 90.8221 12.0295V11.7204H95.1982V36.5H77.1836Z" fill="#303030"/>
<path d="M103.5 36.5V0.5H108.5V36.5H103.5Z" fill="#303030"/>
<path d="M115.5 36.5V0.5H120.5V36.5H115.5Z" fill="#303030"/>
<path d="M127.5 36.5V0.5H132.5V36.5H127.5Z" fill="#303030"/>
<path d="M139.5 36.5V0.5H144.5V36.5H139.5Z" fill="#303030"/>
<text x="110" y="29" fill="#303030" font-family="Arial, Helvetica, sans-serif" font-size="10">Group of companies</text>
</g>
</svg>
